<svg width="68" height="43" viewBox="0 0 68 43" fill="none" xmlns="http://www.w3.org/2000/svg">
<g opacity="0.7">
<mask id="mask0_147_719" style="mask-type:luminance" maskUnits="userSpaceOnUse" x="0" y="0" width="68" height="43">
<path d="M2.61069e-05 1.14441e-05L0 42.2748L68 42.2749L68 6.94692e-05L2.61069e-05 1.14441e-05Z" fill="white"/>
</mask>
<g mask="url(#mask0_147_719)">
<path d="M147.683 14.363H65.9082V-36.8929H147.683V14.363ZM68.0443 12.2904H145.547V-34.8203H68.0443V12.2904Z" fill="white"/>
<path d="M152.118 18.4018H60.8398V-37.5837H152.118V18.4018ZM62.9486 16.3293H149.982V-35.5112H62.9486V16.3293Z" fill="white"/>
<path d="M156.557 22.4407H55.7754V-38.2745H156.557V22.4407ZM57.8841 20.3947H154.421V-36.202H57.8841V20.3947Z" fill="white"/>
<path d="M160.965 26.506H50.6533V-38.9655H160.965V26.506ZM52.7894 24.4334H158.829V-36.8929H52.7894V24.4334Z" fill="white"/>
<path d="M165.401 30.5449H45.5859V-39.6562H165.401V30.5449ZM47.7221 28.4989H163.292V-37.5837H47.7221V28.4989Z" fill="white"/>
<path d="M169.836 34.6102H40.5186V-40.3472H169.836V34.6102ZM42.6273 32.5376H167.7V-38.2746H42.6273V32.5376Z" fill="white"/>
<path d="M174.276 38.649H35.4277V-41.038H174.276V38.649ZM37.5639 36.5765H172.14V-38.9655H37.5639V36.5765Z" fill="white"/>
<path d="M178.71 42.6879H30.3594V-41.7288H178.71V42.6879ZM32.4955 40.642H176.602V-39.6563H32.4955V40.642Z" fill="white"/>
<path d="M183.149 46.7532H25.2949V-42.4198H183.149V46.7532ZM27.4037 44.6806H181.013V-40.3472H27.4037V44.6806Z" fill="white"/>
<path d="M187.584 50.7921H20.1992V-43.1106H187.584V50.7921ZM22.3353 48.7461H185.475V-41.038H22.3353V48.7461Z" fill="white"/>
<path d="M192.019 54.8575H15.1318V-43.8014H192.019V54.8575ZM17.2406 52.785H189.883V-41.7288H17.2406V52.785Z" fill="white"/>
<path d="M200.892 61.3289H10.793V-43.5768H200.892V61.3289ZM12.839 59.3437H198.82V-41.5658H12.839V59.3437Z" fill="white"/>
<path d="M211.9 67.0006H6.47559V-45.8739H211.9V67.0006ZM8.58432 64.928H209.763V-43.8014H8.58432V64.928Z" fill="white"/>
<path d="M209.74 71.0394H-5.21387V-46.5648H209.74V71.0394ZM-3.05036 68.9669H207.632V-44.4922H-3.05036V68.9669Z" fill="white"/>
<path d="M214.176 75.0782H-10.2812V-47.2557H214.176V75.0782ZM-8.14513 73.0322H212.067V-45.1831H-8.14513V73.0322Z" fill="white"/>
<path d="M218.609 79.1436H-15.3516V-47.9465H218.609V79.1436ZM-13.2154 77.0711H216.5V-45.9005L-13.2154 -45.8739V77.0711Z" fill="white"/>
</g>
</g>
</svg>
